<?xml version="1.0" encoding="utf-8"?>
<!-- Generator: Adobe Illustrator 16.0.0, SVG Export Plug-In . SVG Version: 6.00 Build 0)  -->
<!DOCTYPE svg PUBLIC "-//W3C//DTD SVG 1.1//EN" "http://www.w3.org/Graphics/SVG/1.1/DTD/svg11.dtd">
<svg version="1.1" id="Layer_1" xmlns="http://www.w3.org/2000/svg" xmlns:xlink="http://www.w3.org/1999/xlink" x="0px" y="0px"
	 width="95px" height="80px" viewBox="0.014 0.309 95 80" enable-background="new 0.014 0.309 95 80" xml:space="preserve">
<g>
	<path d="M25.316,55c-4.945,0-9.281-1.119-13.008-3.357c-3.728-2.237-6.634-5.379-8.72-9.422S0.46,33.449,0.46,28.035
		c0-5.602,1.078-10.424,3.234-14.467s5.098-7.148,8.824-9.316C16.246,2.084,20.452,1,25.14,1c3,0,5.806,0.434,8.42,1.301
		c2.612,0.867,4.938,2.115,6.979,3.744c2.039,1.629,3.709,3.551,5.01,5.766c1.302,2.215,2.115,4.682,2.443,7.4H37.023
		c-0.306-1.313-0.791-2.501-1.459-3.568c-0.668-1.066-1.5-1.98-2.496-2.742c-0.997-0.761-2.133-1.348-3.41-1.758
		c-1.278-0.41-2.688-0.615-4.236-0.615c-2.883,0-5.379,0.709-7.487,2.127c-2.109,1.418-3.732,3.428-4.869,6.029
		c-1.137,2.602-1.705,5.719-1.705,9.352c0,3.586,0.568,6.686,1.705,9.299c1.137,2.614,2.771,4.623,4.904,6.029
		c2.132,1.405,4.663,2.108,7.594,2.108c2.461,0,4.61-0.469,6.451-1.406c1.84-0.937,3.274-2.237,4.307-3.901
		c1.031-1.664,1.547-3.609,1.547-5.836l2.496,0.211H26.441v-8.191h21.973v6.645c0,4.383-0.99,8.227-2.971,11.531
		c-1.981,3.305-4.706,5.877-8.174,7.717C33.8,54.081,29.816,55,25.316,55z"/>
	<path d="M73.386,55c-4.406,0-8.187-0.691-11.339-2.074c-3.151-1.383-5.571-3.404-7.26-6.064c-1.688-2.659-2.543-5.875-2.565-9.649
		h10.44c0.047,1.875,0.517,3.475,1.406,4.799c0.891,1.324,2.133,2.339,3.727,3.041c1.595,0.703,3.47,1.056,5.625,1.056
		c1.992,0,3.728-0.281,5.203-0.844c1.477-0.563,2.625-1.349,3.445-2.355c0.82-1.008,1.229-2.18,1.229-3.516
		c0-1.148-0.327-2.139-0.983-2.971s-1.67-1.552-3.041-2.162c-1.371-0.609-3.135-1.16-5.291-1.652l-5.555-1.23
		c-5.017-1.125-8.789-2.883-11.32-5.273s-3.797-5.461-3.797-9.211c0-3.187,0.832-5.971,2.496-8.35
		c1.664-2.378,3.989-4.23,6.979-5.555C65.775,1.663,69.226,1,73.14,1c4.008,0,7.471,0.674,10.389,2.021
		c2.918,1.348,5.186,3.264,6.803,5.748s2.474,5.438,2.566,8.859h-10.16c-0.188-2.414-1.131-4.301-2.83-5.66
		c-1.699-1.359-3.943-2.039-6.732-2.039c-1.78,0-3.352,0.27-4.711,0.809c-1.358,0.54-2.414,1.289-3.164,2.25
		c-0.75,0.961-1.125,2.074-1.125,3.34c0,1.125,0.322,2.086,0.968,2.883c0.645,0.797,1.629,1.482,2.953,2.057
		c1.323,0.575,2.981,1.084,4.975,1.529l4.957,1.125c2.647,0.563,4.975,1.278,6.979,2.145c2.005,0.867,3.681,1.911,5.027,3.129
		c1.348,1.219,2.355,2.625,3.023,4.219c0.668,1.594,1.002,3.398,1.002,5.414c0,3.328-0.832,6.205-2.496,8.631
		s-4.037,4.289-7.119,5.59C81.362,54.352,77.675,55,73.386,55z"/>
</g>
<g>
	<path d="M4.36,60.337v19.28H2.006v-19.28H4.36L4.36,60.337z M7.971,79.617H3.338v-2.096h4.478c1.587,0,2.902-0.305,3.946-0.912
		c1.044-0.608,1.821-1.479,2.336-2.614c0.513-1.134,0.77-2.486,0.77-4.058c0-1.553-0.252-2.89-0.757-4.011
		c-0.504-1.12-1.262-1.983-2.271-2.588s-2.265-0.905-3.766-0.905H3.235v-2.097H8.23c1.872,0,3.479,0.384,4.819,1.152
		c1.342,0.768,2.37,1.87,3.087,3.306c0.716,1.438,1.073,3.15,1.073,5.145c0,2.01-0.361,3.736-1.087,5.182
		c-0.725,1.445-1.772,2.556-3.144,3.332C11.606,79.229,9.938,79.617,7.971,79.617z"/>
	<path d="M20.455,79.617v-19.28h12.37v2.097H22.809v6.301H32.1v2.084h-9.291v6.703H32.85v2.096H20.455z"/>
	<path d="M41.746,79.928c-1.467,0-2.734-0.254-3.804-0.764c-1.07-0.509-1.902-1.232-2.498-2.174
		c-0.595-0.94-0.901-2.049-0.918-3.325h2.419c0.018,0.872,0.222,1.615,0.615,2.231c0.393,0.617,0.946,1.088,1.663,1.412
		c0.716,0.322,1.557,0.484,2.522,0.484c0.923,0,1.731-0.138,2.426-0.414c0.694-0.275,1.238-0.671,1.63-1.184
		c0.393-0.514,0.59-1.115,0.59-1.805c0-0.553-0.137-1.024-0.408-1.418c-0.272-0.392-0.688-0.732-1.249-1.021
		c-0.562-0.289-1.281-0.542-2.161-0.758l-2.2-0.555c-1.872-0.475-3.244-1.119-4.115-1.936c-0.871-0.814-1.307-1.874-1.307-3.176
		c0-1.104,0.278-2.068,0.834-2.893s1.334-1.462,2.335-1.915c1-0.452,2.161-0.679,3.48-0.679s2.472,0.239,3.455,0.718
		c0.982,0.479,1.753,1.152,2.31,2.019c0.557,0.867,0.852,1.893,0.887,3.074h-2.329c-0.077-1.147-0.514-2.045-1.307-2.691
		c-0.794-0.646-1.825-0.971-3.092-0.971c-0.828,0-1.563,0.136-2.2,0.408c-0.638,0.271-1.139,0.65-1.501,1.139
		s-0.543,1.046-0.543,1.676c0,0.543,0.146,1.005,0.439,1.384c0.293,0.38,0.723,0.706,1.287,0.978
		c0.565,0.271,1.263,0.511,2.091,0.718l2.135,0.543c0.845,0.216,1.605,0.477,2.284,0.782c0.677,0.308,1.255,0.674,1.733,1.101
		c0.479,0.427,0.846,0.921,1.101,1.481c0.254,0.561,0.382,1.203,0.382,1.928c0,1.095-0.287,2.066-0.86,2.91
		c-0.574,0.847-1.385,1.506-2.433,1.979C44.392,79.689,43.16,79.928,41.746,79.928z"/>
	<path d="M54.301,60.337v19.28h-2.354v-19.28H54.301L54.301,60.337z"/>
	<path d="M66.349,79.915c-1.709,0-3.224-0.418-4.542-1.255c-1.32-0.836-2.355-2.003-3.105-3.5s-1.126-3.221-1.126-5.169
		c0-1.968,0.375-3.698,1.126-5.195c0.75-1.497,1.783-2.663,3.099-3.5c1.315-0.836,2.818-1.255,4.511-1.255
		c1.024,0,1.985,0.157,2.879,0.473c0.893,0.314,1.691,0.76,2.399,1.338c0.707,0.578,1.295,1.265,1.767,2.058
		c0.471,0.794,0.791,1.669,0.965,2.626h-2.408c-0.154-0.646-0.399-1.23-0.736-1.753s-0.751-0.976-1.241-1.359
		c-0.492-0.384-1.042-0.677-1.65-0.88c-0.606-0.203-1.262-0.304-1.961-0.304c-1.25,0-2.359,0.321-3.325,0.964
		s-1.721,1.544-2.265,2.704c-0.543,1.161-0.815,2.521-0.815,4.083c0,1.553,0.272,2.906,0.815,4.063
		c0.544,1.156,1.301,2.055,2.271,2.698c0.972,0.644,2.086,0.964,3.347,0.964c1.078,0,2.053-0.238,2.924-0.718
		s1.561-1.147,2.07-2.006c0.509-0.858,0.764-1.856,0.764-2.995l0.75,0.052h-5.783v-2.083h7.361v2.096
		c0,1.52-0.355,2.869-1.066,4.051c-0.713,1.182-1.676,2.111-2.893,2.789C69.259,79.576,67.884,79.915,66.349,79.915z"/>
	<path d="M77.814,79.617v-19.28h2.729l7.918,12.5c0.183,0.285,0.408,0.653,0.681,1.106c0.271,0.453,0.563,0.949,0.873,1.488
		s0.607,1.08,0.894,1.623l-0.246,0.362c-0.034-0.519-0.063-1.089-0.091-1.714c-0.025-0.625-0.043-1.217-0.052-1.773
		c-0.009-0.556-0.014-0.984-0.014-1.287V60.337h2.368v19.28h-2.757l-7.052-11.115c-0.216-0.345-0.485-0.783-0.81-1.313
		c-0.322-0.531-0.697-1.156-1.126-1.877c-0.427-0.72-0.907-1.532-1.441-2.438L80,62.395c0.043,0.992,0.077,1.886,0.104,2.68
		c0.025,0.794,0.046,1.478,0.058,2.051c0.014,0.574,0.021,1.023,0.021,1.354v11.141h-2.368V79.617z"/>
</g>
</svg>
